<svg
  xmlns="http://www.w3.org/2000/svg"
  width="40"
  height="40"
  fill="#ffffff"
  viewBox="0 0 28.96 29"
>
  <g>
    <path
      d="M13.54,0a14.5,14.5,0,1,0,9.31,2.64A14.68,14.68,0,0,0,13.54,0m2,2.92a11.59,11.59,0,0,1,9.38,16.57,8.55,8.55,0,0,1-1.15,1.89,7.16,7.16,0,0,1-.92-.79,5.71,5.71,0,0,0-3-1.67c-.48-.11-10.27-.11-10.76,0a5.66,5.66,0,0,0-2.92,1.6,6.53,6.53,0,0,1-1,.86,8.29,8.29,0,0,1-.75-1.12A11.59,11.59,0,0,1,15.54,3m-2,2.94a5.79,5.79,0,1,0,2.15,0,7.36,7.36,0,0,0-2.15,0m1.7,2.89a2.94,2.94,0,0,1,2,3.69,2.9,2.9,0,1,1-2-3.69m4.36,13.07a3.06,3.06,0,0,1,1.33.9c.1.11.33.32.5.47.39.33.39.31,0,.62a11.57,11.57,0,0,1-13.31.3c-.67-.45-.84-.59-.8-.64a4,4,0,0,1,.34-.3c.17-.15.4-.37.51-.49a3,3,0,0,1,1.42-.89c.26-.07.47-.07,5-.06h4.76l.24.09"
    />
  </g>
</svg>
