<svg xmlns="http://www.w3.org/2000/svg" width="24" height="24" fill="currentColor" class="zi zi-calendar" viewBox="0 0 24 24"><path d="M7.643 1.069a1.118 1.118 0 0 0-.343.229c-.248.248-.3.443-.3 1.126v.569l-1.27.017c-1.182.017-1.289.024-1.55.108a2.92 2.92 0 0 0-1.282.78c-.399.4-.614.756-.784 1.302l-.094.3v7.48c0 8.446-.031 7.652.327 8.38.157.321.242.436.55.742.41.408.782.629 1.325.786l.318.092H12c8.423 0 7.632.031 8.36-.327.32-.157.437-.243.743-.55.307-.306.393-.423.55-.743.358-.728.327.063.327-8.36s.031-7.632-.327-8.36c-.157-.321-.242-.436-.55-.742a2.948 2.948 0 0 0-1.283-.781c-.262-.086-.359-.093-1.55-.108L17 2.993v-.569c0-.683-.052-.878-.299-1.125a.984.984 0 0 0-1.402 0c-.247.247-.299.442-.299 1.128V3H9v-.573c0-.686-.052-.881-.299-1.128a.998.998 0 0 0-1.058-.23M7 5.573c0 .686.052.881.299 1.128a.984.984 0 0 0 1.402 0C8.948 6.454 9 6.259 9 5.573V5h6v.573c0 .686.052.881.299 1.128a.984.984 0 0 0 1.402 0c.248-.248.299-.442.299-1.13v-.576l1.15.013 1.15.012.189.111c.103.061.236.173.294.25.208.273.213.319.215 2.029L20 9H3.997l.011-1.65.012-1.65.111-.189c.061-.103.173-.236.25-.294.262-.2.357-.213 1.529-.215L7 5v.573M19.991 15.65l-.011 4.65-.111.189a1.038 1.038 0 0 1-.539.454c-.223.079-14.437.079-14.66 0a1.038 1.038 0 0 1-.539-.454L4.02 20.3l-.011-4.65-.01-4.65h16.002l-.01 4.65" fill-rule="evenodd" fill="#000"/></svg>