<svg xmlns="http://www.w3.org/2000/svg" width="24" height="24" fill="currentColor" class="zi zi-chart" viewBox="0 0 24 24"><path d="M11.643 3.069a1.118 1.118 0 0 0-.343.229c-.327.326-.3-.443-.3 8.702 0 9.144-.026 8.376.299 8.701a.984.984 0 0 0 1.402 0c.325-.325.299.443.299-8.701s.026-8.376-.299-8.701a.998.998 0 0 0-1.058-.23m6 6a1.118 1.118 0 0 0-.343.229c-.321.321-.3-.082-.3 5.702 0 5.783-.021 5.381.299 5.701a.984.984 0 0 0 1.402 0c.32-.32.299.082.299-5.701 0-5.783.021-5.381-.299-5.701a.998.998 0 0 0-1.058-.23m-12 4a1.118 1.118 0 0 0-.343.229c-.313.313-.3.157-.3 3.702 0 3.544-.013 3.39.299 3.701a.984.984 0 0 0 1.402 0C7.013 20.39 7 20.544 7 17s.013-3.39-.299-3.701a.998.998 0 0 0-1.058-.23" fill-rule="evenodd" fill="#000"/></svg>