<svg xmlns="http://www.w3.org/2000/svg" width="24" height="24" fill="currentColor" class="zi zi-check" viewBox="0 0 24 24"><path d="M20.64 5.069c-.137.048-.31.191-.72.591-.297.29-2.959 2.872-5.915 5.737l-5.375 5.21-.185-.179L5.94 14c-1.783-1.729-2.366-2.271-2.52-2.344a1 1 0 0 0-1.312.444c-.114.217-.118.615-.008.859.063.14.711.791 3 3.013 1.606 1.559 2.992 2.873 3.08 2.92.225.12.655.12.885-.002.252-.132 12.689-12.202 12.811-12.432.428-.805-.364-1.694-1.236-1.389" fill-rule="evenodd" fill="#000"/></svg>