<svg xmlns="http://www.w3.org/2000/svg" width="24" height="24" fill="currentColor" class="zi zi-chevron-down" viewBox="0 0 24 24"><path d="M2.795 6.752a1.002 1.002 0 0 0-.429 1.343c.023.047 2.061 2.107 4.528 4.579 4.827 4.836 4.663 4.685 5.081 4.686.46.001.129.302 5.037-4.596 2.481-2.477 4.546-4.559 4.588-4.625a1.016 1.016 0 0 0-.054-1.108c-.171-.225-.492-.391-.756-.391-.465 0-.164-.273-4.66 4.216L12 14.979l-4.11-4.108C3.421 6.404 3.682 6.64 3.22 6.64a.84.84 0 0 0-.425.112" fill-rule="evenodd" fill="#000"/></svg>