<svg xmlns="http://www.w3.org/2000/svg" width="24" height="24" fill="currentColor" class="zi zi-chevron-left" viewBox="0 0 24 24"><path d="M15.64 3.068c-.157.053-.718.598-4.311 4.187-3 2.996-4.154 4.173-4.216 4.301a1.013 1.013 0 0 0-.053.77c.066.204.263.408 4.195 4.345 2.995 3 4.173 4.154 4.301 4.216a.986.986 0 0 0 1.144-.185c.279-.279.364-.655.235-1.045-.059-.18-.381-.514-3.789-3.927L9.421 12l3.725-3.73c3.408-3.413 3.73-3.747 3.789-3.927.128-.39.044-.766-.234-1.044a1.006 1.006 0 0 0-1.061-.231" fill-rule="evenodd" fill="#000"/></svg>