<svg xmlns="http://www.w3.org/2000/svg" width="24" height="24" fill="currentColor" class="zi zi-chevron-right" viewBox="0 0 24 24"><path d="M7.643 3.069C7.291 3.193 7 3.614 7 4c0 .08.029.234.065.343.059.18.381.514 3.789 3.927L14.579 12l-3.725 3.73c-3.408 3.413-3.73 3.747-3.789 3.927-.129.39-.044.766.235 1.045a.986.986 0 0 0 1.144.185c.128-.062 1.306-1.216 4.301-4.216 3.932-3.937 4.129-4.141 4.195-4.345a1.013 1.013 0 0 0-.053-.77c-.062-.128-1.216-1.305-4.216-4.301-3.786-3.781-4.147-4.131-4.328-4.19a1.038 1.038 0 0 0-.7.004" fill-rule="evenodd" fill="#000"/></svg>