<svg xmlns="http://www.w3.org/2000/svg" width="24" height="24" fill="currentColor" class="zi zi-file-text" viewBox="0 0 24 24"><path d="M5.6 1.028a4.031 4.031 0 0 0-1.018.342c-.243.126-.411.255-.685.528-.308.306-.393.421-.55.742-.359.731-.327-.191-.327 9.36s-.032 8.629.327 9.36c.157.321.242.436.55.742.41.408.782.629 1.325.786l.318.092H12c7.295 0 6.635.029 7.36-.327.32-.157.437-.243.743-.55.307-.306.393-.423.55-.743.357-.727.325-.05.338-7.2.01-5.812.006-6.355-.055-6.52-.056-.152-.561-.676-3.29-3.41L14.421 1l-4.36.005c-2.399.003-4.406.013-4.461.023M13 5.573c0 2.904-.008 2.821.299 3.128.307.307.224.299 3.128.299H19l-.002 5.59c-.001 4.565-.011 5.618-.055 5.74a1.038 1.038 0 0 1-.454.539l-.189.111H5.7l-.192-.113a1.076 1.076 0 0 1-.468-.589c-.027-.098-.037-2.945-.03-8.364L5.02 3.7l.111-.189c.125-.213.318-.375.539-.454.121-.043.846-.054 3.74-.055L13 3v2.573m3.3.147L17.58 7H15V5.72c0-.704.005-1.28.01-1.28.006 0 .586.576 1.29 1.28M7.643 8.069C7.291 8.193 7 8.614 7 9c0 .396.291.808.66.934.288.098 2.392.098 2.68 0 .369-.126.66-.538.66-.934s-.291-.808-.66-.934c-.278-.094-2.427-.092-2.697.003m0 4C7.291 12.193 7 12.614 7 13c0 .242.119.521.299.701.317.317.038.299 4.701.299 4.663 0 4.384.018 4.701-.299a.984.984 0 0 0 0-1.402c-.317-.317-.035-.299-4.718-.296-3.663.003-4.184.011-4.34.066m0 4C7.291 16.193 7 16.614 7 17c0 .242.119.521.299.701.317.317.038.299 4.701.299 4.663 0 4.384.018 4.701-.299a.984.984 0 0 0 0-1.402c-.317-.317-.035-.299-4.718-.296-3.663.003-4.184.011-4.34.066" fill-rule="evenodd" fill="#000"/></svg>